<svg width="165" height="25" viewBox="0 0 165 25" fill="none" xmlns="http://www.w3.org/2000/svg">
<path d="M47.12 7.44C48.2533 7.44 49.12 7.78 49.72 8.46C50.3333 9.12667 50.64 10.0733 50.64 11.3V18H49.82V11.38C49.82 9.24667 48.8933 8.18 47.04 8.18C46.0933 8.18 45.3267 8.54 44.74 9.26C44.1533 9.96667 43.8533 10.9933 43.84 12.34V18H43.02V11.38C43.02 9.24667 42.0867 8.18 40.22 8.18C39.2867 8.18 38.52 8.54 37.92 9.26C37.3333 9.96667 37.0333 10.9933 37.02 12.34V18H36.2V7.68H36.98V9.92C37.26 9.14667 37.6933 8.54 38.28 8.1C38.8667 7.66 39.5533 7.44 40.34 7.44C41.22 7.44 41.9467 7.66 42.52 8.1C43.1067 8.54 43.4933 9.16 43.68 9.96C43.9733 9.16 44.42 8.54 45.02 8.1C45.62 7.66 46.32 7.44 47.12 7.44ZM57.6681 13.16L59.6881 7.68H60.5881L56.1881 19.38C55.8548 20.2733 55.4548 20.9267 54.9881 21.34C54.5215 21.7533 53.9348 21.96 53.2281 21.96C52.8281 21.96 52.5615 21.9533 52.4281 21.94V21.24H53.2081C54.1681 21.24 54.9015 20.56 55.4081 19.2C55.5148 18.9333 55.6348 18.62 55.7681 18.26L51.6081 7.68H52.5081L54.6281 13.14C54.8948 13.82 55.4148 15.2067 56.1881 17.3C56.2948 16.9933 56.7881 15.6133 57.6681 13.16ZM71.1398 10.5C71.9265 10.78 72.5332 11.2267 72.9598 11.84C73.3998 12.4533 73.6198 13.1467 73.6198 13.92C73.6198 15.2133 73.1932 16.22 72.3398 16.94C71.4998 17.6467 70.2732 18 68.6598 18H61.9998V3.76H68.4398C69.9332 3.76 71.0732 4.1 71.8598 4.78C72.6465 5.46 73.0398 6.34667 73.0398 7.44C73.0398 8.84 72.4065 9.86 71.1398 10.5ZM68.2398 5.98H64.6998V9.7H68.2398C68.9198 9.7 69.4398 9.53333 69.7998 9.2C70.1732 8.85333 70.3598 8.38 70.3598 7.78C70.3598 7.22 70.1732 6.78 69.7998 6.46C69.4265 6.14 68.9065 5.98 68.2398 5.98ZM64.6998 15.76H68.5198C69.2798 15.76 69.8598 15.5933 70.2598 15.26C70.6598 14.9133 70.8598 14.4267 70.8598 13.8C70.8598 12.48 70.0798 11.82 68.5198 11.82H64.6998V15.76ZM85.3178 12.84C85.3178 14.4667 84.8378 15.7733 83.8778 16.76C82.9178 17.7467 81.6511 18.24 80.0778 18.24C78.5045 18.24 77.2378 17.7467 76.2778 16.76C75.3045 15.7867 74.8178 14.48 74.8178 12.84C74.8178 11.2 75.3045 9.89333 76.2778 8.92C77.2378 7.93333 78.5045 7.44 80.0778 7.44C81.6511 7.44 82.9178 7.92667 83.8778 8.9C84.8378 9.87333 85.3178 11.1867 85.3178 12.84ZM78.0978 15.3C78.5778 15.8733 79.2378 16.16 80.0778 16.16C80.9178 16.16 81.5711 15.8733 82.0378 15.3C82.5178 14.7133 82.7578 13.8933 82.7578 12.84C82.7578 11.7867 82.5178 10.9733 82.0378 10.4C81.5711 9.81333 80.9178 9.52 80.0778 9.52C79.2378 9.52 78.5778 9.80667 78.0978 10.38C77.6311 10.9533 77.3978 11.7733 77.3978 12.84C77.3978 13.9067 77.6311 14.7267 78.0978 15.3ZM96.9389 12.84C96.9389 14.4667 96.4589 15.7733 95.4989 16.76C94.5389 17.7467 93.2722 18.24 91.6989 18.24C90.1256 18.24 88.8589 17.7467 87.8989 16.76C86.9256 15.7867 86.4389 14.48 86.4389 12.84C86.4389 11.2 86.9256 9.89333 87.8989 8.92C88.8589 7.93333 90.1256 7.44 91.6989 7.44C93.2722 7.44 94.5389 7.92667 95.4989 8.9C96.4589 9.87333 96.9389 11.1867 96.9389 12.84ZM89.7189 15.3C90.1989 15.8733 90.8589 16.16 91.6989 16.16C92.5389 16.16 93.1922 15.8733 93.6589 15.3C94.1389 14.7133 94.3789 13.8933 94.3789 12.84C94.3789 11.7867 94.1389 10.9733 93.6589 10.4C93.1922 9.81333 92.5389 9.52 91.6989 9.52C90.8589 9.52 90.1989 9.80667 89.7189 10.38C89.2522 10.9533 89.0189 11.7733 89.0189 12.84C89.0189 13.9067 89.2522 14.7267 89.7189 15.3ZM108.44 18H105.56L102.56 13.2L101 14.76V18H98.52V3.76H101V11.96L105.2 7.68H108.2L104.3 11.58L108.44 18ZM121.101 7.44C122.234 7.44 123.114 7.77333 123.741 8.44C124.381 9.10667 124.701 10.02 124.701 11.18V18H122.181V11.58C122.181 10.2733 121.587 9.62 120.401 9.62C119.761 9.62 119.241 9.85333 118.841 10.32C118.454 10.7733 118.261 11.44 118.261 12.32V18H115.761V11.58C115.761 10.2733 115.161 9.62 113.961 9.62C113.334 9.62 112.821 9.85333 112.421 10.32C112.034 10.7733 111.841 11.44 111.841 12.32V18H109.321V7.68H111.761V9.16C112.467 8.01333 113.447 7.44 114.701 7.44C116.274 7.44 117.341 8.08 117.901 9.36C118.674 8.08 119.741 7.44 121.101 7.44ZM136.023 18H133.503C133.383 17.7867 133.289 17.3667 133.223 16.74C132.529 17.74 131.423 18.24 129.903 18.24C128.769 18.24 127.863 17.9667 127.183 17.42C126.516 16.8733 126.183 16.1133 126.183 15.14C126.183 13.26 127.503 12.1867 130.143 11.92L131.703 11.78C132.223 11.7133 132.596 11.5933 132.823 11.42C133.049 11.2333 133.163 10.96 133.163 10.6C133.163 10.16 133.016 9.84 132.723 9.64C132.443 9.42667 131.963 9.32 131.283 9.32C130.549 9.32 130.023 9.44667 129.703 9.7C129.383 9.94 129.196 10.36 129.143 10.96H126.663C126.809 8.61333 128.356 7.44 131.303 7.44C134.169 7.44 135.603 8.47333 135.603 10.54V16.04C135.603 16.9467 135.743 17.6 136.023 18ZM130.503 16.44C131.289 16.44 131.929 16.2267 132.423 15.8C132.916 15.36 133.163 14.7333 133.163 13.92V12.98C132.923 13.1933 132.529 13.3333 131.983 13.4L130.623 13.56C129.956 13.64 129.476 13.8 129.183 14.04C128.903 14.2667 128.763 14.6 128.763 15.04C128.763 15.48 128.909 15.8267 129.203 16.08C129.509 16.32 129.943 16.44 130.503 16.44ZM143.044 7.52C143.271 7.52 143.477 7.53333 143.664 7.56V9.88H143.024C142.064 9.88 141.324 10.1267 140.804 10.62C140.297 11.1 140.044 11.8133 140.044 12.76V18H137.524V7.68H139.964V9.52C140.537 8.18667 141.564 7.52 143.044 7.52ZM154.944 18H152.064L149.064 13.2L147.504 14.76V18H145.024V3.76H147.504V11.96L151.704 7.68H154.704L150.804 11.58L154.944 18ZM159.572 18.28C156.559 18.28 154.986 17.0933 154.852 14.72H157.312C157.379 15.36 157.586 15.8133 157.932 16.08C158.292 16.3467 158.852 16.48 159.612 16.48C160.972 16.48 161.652 16.0667 161.652 15.24C161.652 14.8667 161.506 14.58 161.212 14.38C160.919 14.18 160.392 14.0133 159.632 13.88L158.452 13.68C156.199 13.3067 155.072 12.2667 155.072 10.56C155.072 9.58667 155.446 8.82667 156.192 8.28C156.939 7.72 157.992 7.44 159.352 7.44C162.299 7.44 163.819 8.60667 163.912 10.94H161.532C161.506 10.3267 161.312 9.89333 160.952 9.64C160.592 9.37333 160.059 9.24 159.352 9.24C158.152 9.24 157.552 9.64 157.552 10.44C157.552 10.7867 157.686 11.06 157.952 11.26C158.219 11.4467 158.659 11.5933 159.272 11.7L160.572 11.9C161.826 12.1267 162.732 12.4867 163.292 12.98C163.866 13.4733 164.152 14.16 164.152 15.04C164.152 16.08 163.752 16.88 162.952 17.44C162.152 18 161.026 18.28 159.572 18.28Z" fill="black"/>
<mask id="path-2-inside-1" fill="white">
<rect width="25" height="25" rx="5"/>
</mask>
<rect width="25" height="25" rx="5" fill="#3E692A" stroke="#3E692A" stroke-width="20" mask="url(#path-2-inside-1)"/>
<path d="M21.3623 17.4989L16.8114 13.0929L11.4207 16.4192L12.7643 4.04754C12.8089 3.63739 13.0012 3.26029 13.2991 2.9992C13.5969 2.73811 13.9758 2.61441 14.3525 2.65532L21.4536 3.42652C21.8303 3.46743 22.1738 3.66959 22.4087 3.98854C22.6435 4.30748 22.7504 4.71708 22.7059 5.12723L21.3623 17.4989Z" fill="white" stroke="white" stroke-width="2" stroke-linecap="round" stroke-linejoin="round"/>
<circle cx="18.5" cy="6.5" r="1.5" fill="#3E692A"/>
</svg>
